<svg xmlns="http://www.w3.org/2000/svg" width="597.758" height="316.615" viewBox="0 0 597.758 316.615">
  <g id="Cube_Elements" data-name="Cube Elements" transform="translate(-1193.16 -377.609)" opacity="0.168">
    <g id="Group_5187" data-name="Group 5187" transform="translate(1193.16 377.609)">
      <g id="Group_5186" data-name="Group 5186" transform="translate(0)">
        <g id="Group_5185" data-name="Group 5185">
          <g id="Group_5184" data-name="Group 5184">
            <g id="Group_5075" data-name="Group 5075" transform="translate(0 60.704)" opacity="0.4">
              <path id="Path_3451" data-name="Path 3451" d="M1371.048,653.967l-84.677-49.536a.889.889,0,0,0-.894,0L1253.744,622.8l-59.252-34.039a.889.889,0,1,0-.885,1.542l59.7,34.294a.889.889,0,0,0,.888,0l31.729-18.37,84.23,49.274a.889.889,0,1,0,.9-1.534Z" transform="translate(-1193.16 -588.644)" fill="#c356ff"/>
            </g>
            <g id="Group_5076" data-name="Group 5076" transform="translate(10.994 42.291)" opacity="0.4">
              <path id="Path_3452" data-name="Path 3452" d="M1762.039,524.674l-113.467,64.778a.317.317,0,0,0,0,.551l48.635,28.091-128.917,74.148-79.013-46.9a.317.317,0,0,0-.324,0l-95.525,56.639-113.249-64.834,16.456-9.462a.318.318,0,0,0,0-.551l-64.778-37.258a.317.317,0,1,0-.316.55l64.3,36.983-16.457,9.463a.317.317,0,0,0,0,.551l113.89,65.2a.318.318,0,0,0,.32,0l95.522-56.637,79.01,46.9a.318.318,0,0,0,.321,0L1698,618.369a.317.317,0,0,0,0-.55l-48.634-28.09,112.986-64.5a.317.317,0,1,0-.315-.551Z" transform="translate(-1231.38 -524.632)" fill="#c356ff"/>
            </g>
            <g id="Group_5079" data-name="Group 5079" transform="translate(100.665 65.471)">
              <g id="Group_5077" data-name="Group 5077" transform="translate(1.402 1.297)">
                <path id="Path_3453" data-name="Path 3453" d="M1609.608,678.457a.7.7,0,0,1-.358-.1l-60.917-36.509a.7.7,0,0,1-.339-.6V610.425a.7.7,0,1,1,1.4,0v30.429l60.578,36.305a.7.7,0,0,1-.36,1.3Z" transform="translate(-1547.993 -609.727)" fill="#c356ff"/>
              </g>
              <g id="Group_5078" data-name="Group 5078">
                <path id="Path_3454" data-name="Path 3454" d="M1547.32,607.318a2.1,2.1,0,1,0-2.1,2.1A2.1,2.1,0,0,0,1547.32,607.318Z" transform="translate(-1543.118 -605.217)" fill="#c356ff"/>
              </g>
            </g>
            <g id="Group_5080" data-name="Group 5080" transform="translate(48.546 158.719)" opacity="0.3">
              <path id="Path_3455" data-name="Path 3455" d="M1910.705,971.429l-70.493-41.915a.889.889,0,0,0-.9,0l-112.593,65.784-98.622-58.162a.889.889,0,0,0-.9,0l-190.07,110.874-23.048-13.7a.889.889,0,0,0-.9-.007l-50.806,29.213a.889.889,0,1,0,.886,1.541l50.355-28.954,23.051,13.706a.888.888,0,0,0,.9,0l190.072-110.875,98.623,58.162a.888.888,0,0,0,.9,0l112.591-65.784,70.043,41.647a.889.889,0,1,0,.908-1.528Z" transform="translate(-1361.928 -929.389)" fill="#c356ff"/>
            </g>
            <g id="Group_5081" data-name="Group 5081" transform="translate(267.14 69.388)" opacity="0.4">
              <path id="Path_3456" data-name="Path 3456" d="M2412.459,618.874,2138.53,777.219a.317.317,0,0,0,0,.548l46.952,27.668-63.463,36.985a.318.318,0,0,0,.32.549l63.931-37.258a.317.317,0,0,0,0-.548l-46.95-27.667,273.458-158.073a.317.317,0,1,0-.318-.55Z" transform="translate(-2121.86 -618.832)" fill="#c356ff"/>
            </g>
            <g id="Group_5082" data-name="Group 5082" transform="translate(82.014 14.697)" opacity="0.4">
              <path id="Path_3457" data-name="Path 3457" d="M1705.7,466.926l-65.2-37.681a.889.889,0,0,0-.889,1.539l63.874,36.914-78.248,45.541-145.62-84.417a.889.889,0,1,0-.891,1.538l146.067,84.676a.888.888,0,0,0,.893,0l80.019-46.572a.889.889,0,0,0,0-1.538Z" transform="translate(-1478.278 -428.702)" fill="#c356ff"/>
            </g>
            <g id="Group_5086" data-name="Group 5086" transform="translate(14.405 156.823)">
              <g id="Group_5085" data-name="Group 5085">
                <g id="Group_5083" data-name="Group 5083" transform="translate(1.312 1.349)">
                  <path id="Path_3458" data-name="Path 3458" d="M1308.824,963.1l-59.97-35.519a.7.7,0,0,0-.712,1.2l59.97,35.519a.7.7,0,0,0,.712-1.2Z" transform="translate(-1247.8 -927.487)" fill="#c356ff"/>
                </g>
                <g id="Group_5084" data-name="Group 5084">
                  <path id="Path_3459" data-name="Path 3459" d="M1246.41,923.09a2.1,2.1,0,1,0,.737,2.878A2.1,2.1,0,0,0,1246.41,923.09Z" transform="translate(-1243.239 -922.797)" fill="#c356ff"/>
                </g>
              </g>
            </g>
            <g id="Group_5094" data-name="Group 5094" transform="translate(157.248 109.21)">
              <g id="Group_5093" data-name="Group 5093" style="isolation: isolate">
                <g id="Group_5088" data-name="Group 5088" transform="translate(0.129)">
                  <g id="Group_5087" data-name="Group 5087">
                    <path id="Path_3460" data-name="Path 3460" d="M1741.817,780.572l37.681,21.755,37.436-21.755-37.681-21.755Z" transform="translate(-1741.373 -758.372)" fill="#935dff"/>
                    <path id="Path_3461" data-name="Path 3461" d="M1816.055,779.086l-37.681-21.755a.445.445,0,0,0-.446,0l-37.436,21.755a.445.445,0,0,0,0,.769l37.681,21.755a.445.445,0,0,0,.446,0l37.436-21.756a.445.445,0,0,0,0-.769ZM1778.4,800.712,1741.6,779.47l36.55-21.24,36.793,21.243Z" transform="translate(-1740.272 -757.271)" fill="#c356ff"/>
                  </g>
                </g>
                <g id="Group_5090" data-name="Group 5090" transform="translate(37.681 21.755)">
                  <g id="Group_5089" data-name="Group 5089">
                    <path id="Path_3462" data-name="Path 3462" d="M1872.364,901.693l37.436-21.755.129-45.491L1872.492,856.2Z" transform="translate(-1871.919 -834.002)" fill="#67119e"/>
                    <path id="Path_3463" data-name="Path 3463" d="M1909.05,832.961a.446.446,0,0,0-.446,0l-37.436,21.756a.444.444,0,0,0-.221.383l-.129,45.491a.445.445,0,0,0,.668.385l37.436-21.755a.444.444,0,0,0,.221-.383l.129-45.491A.444.444,0,0,0,1909.05,832.961Zm-.8,45.62-36.545,21.238.126-44.461,36.546-21.238Z" transform="translate(-1870.818 -832.902)" fill="#c356ff"/>
                  </g>
                </g>
                <g id="Group_5092" data-name="Group 5092" transform="translate(0 21.755)">
                  <g id="Group_5091" data-name="Group 5091">
                    <path id="Path_3464" data-name="Path 3464" d="M1741.369,879.939l37.681,21.755.129-45.491L1741.5,834.448Z" transform="translate(-1740.924 -834.003)" fill="#9d3eec"/>
                    <path id="Path_3465" data-name="Path 3465" d="M1778.3,854.717l-37.681-21.755a.444.444,0,0,0-.667.384l-.129,45.491a.445.445,0,0,0,.222.386l37.681,21.755a.444.444,0,0,0,.667-.384l.129-45.491A.445.445,0,0,0,1778.3,854.717Zm-.793,45.108-36.793-21.243.126-44.466,36.793,21.243Z" transform="translate(-1739.823 -832.902)" fill="#c356ff"/>
                  </g>
                </g>
              </g>
            </g>
            <g id="Group_5095" data-name="Group 5095" transform="translate(102.074 231.867)">
              <path id="Path_3466" data-name="Path 3466" d="M1548.714,1183.684a.7.7,0,0,0-.7.7v69.272a.7.7,0,0,0,1.4,0v-69.272A.7.7,0,0,0,1548.714,1183.684Z" transform="translate(-1548.016 -1183.684)" fill="#c356ff"/>
            </g>
            <g id="Group_5096" data-name="Group 5096" transform="translate(127.945 164.662)">
              <path id="Path_3467" data-name="Path 3467" d="M1686.242,950.149l-47.953,29.263a.7.7,0,1,0,.728,1.192l47.953-29.263a.7.7,0,1,0-.727-1.192Z" transform="translate(-1637.954 -950.046)" fill="#c356ff"/>
            </g>
            <g id="Group_5097" data-name="Group 5097" transform="translate(213.66 164.621)">
              <path id="Path_3468" data-name="Path 3468" d="M1981.969,978.207l-44.961-28.2a.7.7,0,1,0-.742,1.183l44.96,28.2a.7.7,0,1,0,.742-1.183Z" transform="translate(-1935.939 -949.904)" fill="#c356ff"/>
            </g>
            <g id="Group_5105" data-name="Group 5105" transform="translate(64.512 165.384)">
              <g id="Group_5104" data-name="Group 5104" style="isolation: isolate">
                <g id="Group_5099" data-name="Group 5099" transform="translate(0.129)">
                  <g id="Group_5098" data-name="Group 5098">
                    <path id="Path_3469" data-name="Path 3469" d="M1419.426,975.857l37.681,21.755,37.436-21.755L1456.862,954.1Z" transform="translate(-1418.982 -953.657)" fill="#935dff"/>
                    <path id="Path_3470" data-name="Path 3470" d="M1493.664,974.371l-37.681-21.755a.445.445,0,0,0-.446,0L1418.1,974.372a.444.444,0,0,0,0,.769l37.68,21.755a.445.445,0,0,0,.446,0l37.436-21.755a.444.444,0,0,0,0-.769ZM1456.005,996l-36.793-21.243,36.55-21.241,36.793,21.243Z" transform="translate(-1417.881 -952.557)" fill="#c356ff"/>
                  </g>
                </g>
                <g id="Group_5101" data-name="Group 5101" transform="translate(37.68 21.755)">
                  <g id="Group_5100" data-name="Group 5100">
                    <path id="Path_3471" data-name="Path 3471" d="M1549.973,1096.978l37.436-21.755.129-45.491-37.436,21.755Z" transform="translate(-1549.528 -1029.287)" fill="#67119e"/>
                    <path id="Path_3472" data-name="Path 3472" d="M1586.659,1028.247a.444.444,0,0,0-.446,0L1548.777,1050a.444.444,0,0,0-.221.383l-.129,45.491a.445.445,0,0,0,.668.386l37.436-21.756a.444.444,0,0,0,.221-.383l.129-45.491A.445.445,0,0,0,1586.659,1028.247Zm-.795,45.62-36.546,21.238.126-44.461,36.546-21.238Z" transform="translate(-1548.427 -1028.187)" fill="#c356ff"/>
                  </g>
                </g>
                <g id="Group_5103" data-name="Group 5103" transform="translate(0 21.755)">
                  <g id="Group_5102" data-name="Group 5102">
                    <path id="Path_3473" data-name="Path 3473" d="M1418.978,1075.224l37.681,21.755.129-45.491-37.681-21.755Z" transform="translate(-1418.533 -1029.289)" fill="#9d3eec"/>
                    <path id="Path_3474" data-name="Path 3474" d="M1455.909,1050l-37.681-21.755a.445.445,0,0,0-.667.384l-.129,45.491a.445.445,0,0,0,.222.386l37.681,21.755a.445.445,0,0,0,.667-.384l.129-45.491A.444.444,0,0,0,1455.909,1050Zm-.794,45.108-36.793-21.243.126-44.466,36.793,21.243Z" transform="translate(-1417.433 -1028.188)" fill="#c356ff"/>
                  </g>
                </g>
              </g>
            </g>
            <g id="Group_5113" data-name="Group 5113" transform="translate(253.986 168.559)">
              <g id="Group_5112" data-name="Group 5112" style="isolation: isolate">
                <g id="Group_5107" data-name="Group 5107" transform="translate(0.129)">
                  <g id="Group_5106" data-name="Group 5106">
                    <path id="Path_3475" data-name="Path 3475" d="M2078.123,986.9l37.681,21.755L2153.24,986.9l-37.681-21.755Z" transform="translate(-2077.679 -964.696)" fill="#935dff"/>
                    <path id="Path_3476" data-name="Path 3476" d="M2152.361,985.41l-37.681-21.755a.446.446,0,0,0-.446,0L2076.8,985.411a.444.444,0,0,0,0,.769l37.68,21.755a.445.445,0,0,0,.446,0l37.436-21.755a.444.444,0,0,0,0-.769Zm-37.659,21.627-36.793-21.243,36.55-21.24,36.793,21.243Z" transform="translate(-2076.578 -963.596)" fill="#c356ff"/>
                  </g>
                </g>
                <g id="Group_5109" data-name="Group 5109" transform="translate(37.681 21.755)">
                  <g id="Group_5108" data-name="Group 5108">
                    <path id="Path_3477" data-name="Path 3477" d="M2208.67,1108.017l37.436-21.755.129-45.491-37.436,21.755Z" transform="translate(-2208.225 -1040.326)" fill="#67119e"/>
                    <path id="Path_3478" data-name="Path 3478" d="M2245.356,1039.285a.446.446,0,0,0-.446,0l-37.436,21.755a.444.444,0,0,0-.221.383l-.129,45.491a.444.444,0,0,0,.668.385l37.436-21.755a.445.445,0,0,0,.221-.383l.129-45.491A.445.445,0,0,0,2245.356,1039.285Zm-.795,45.62-36.546,21.238.126-44.461,36.546-21.238Z" transform="translate(-2207.125 -1039.226)" fill="#c356ff"/>
                  </g>
                </g>
                <g id="Group_5111" data-name="Group 5111" transform="translate(0 21.755)">
                  <g id="Group_5110" data-name="Group 5110">
                    <path id="Path_3479" data-name="Path 3479" d="M2077.675,1086.263l37.681,21.755.129-45.491-37.681-21.755Z" transform="translate(-2077.23 -1040.327)" fill="#9d3eec"/>
                    <path id="Path_3480" data-name="Path 3480" d="M2114.606,1061.041l-37.681-21.755a.445.445,0,0,0-.667.384l-.129,45.491a.445.445,0,0,0,.222.386l37.681,21.755a.445.445,0,0,0,.667-.384l.129-45.491A.444.444,0,0,0,2114.606,1061.041Zm-.794,45.108-36.793-21.243.126-44.466,36.793,21.242Z" transform="translate(-2076.13 -1039.226)" fill="#c356ff"/>
                  </g>
                </g>
              </g>
            </g>
            <g id="Group_5114" data-name="Group 5114" transform="translate(18.11 222.837)">
              <path id="Path_3481" data-name="Path 3481" d="M1302.367,1251.14a.952.952,0,1,0,.969,1.64l.011-.006a.947.947,0,0,0,.33-1.3A.958.958,0,0,0,1302.367,1251.14Z" transform="translate(-1288.731 -1222.611)" fill="#c356ff"/>
              <path id="Path_3482" data-name="Path 3482" d="M1332.9,1233.173l-.011.006a.952.952,0,1,0,.965,1.642l.011-.006a.952.952,0,0,0-.965-1.642Z" transform="translate(-1310.472 -1209.814)" fill="#c356ff"/>
              <path id="Path_3483" data-name="Path 3483" d="M1348.147,1224.223a.952.952,0,1,0,.969,1.64l.011-.006a.947.947,0,0,0,.33-1.3A.958.958,0,0,0,1348.147,1224.223Z" transform="translate(-1321.342 -1203.437)" fill="#c356ff"/>
              <path id="Path_3484" data-name="Path 3484" d="M1287.116,1260.107a.953.953,0,0,0,.951,1.651l.011-.006a.947.947,0,0,0,.344-1.3A.958.958,0,0,0,1287.116,1260.107Z" transform="translate(-1277.86 -1229.002)" fill="#c356ff"/>
              <path id="Path_3485" data-name="Path 3485" d="M1256.6,1278.035l-.011.006a.953.953,0,0,0,.965,1.643l.011-.007a.952.952,0,1,0-.965-1.642Z" transform="translate(-1256.119 -1241.771)" fill="#c356ff"/>
              <path id="Path_3486" data-name="Path 3486" d="M1271.847,1269.084a.952.952,0,1,0,.969,1.64l.011-.006a.947.947,0,0,0,.33-1.3A.958.958,0,0,0,1271.847,1269.084Z" transform="translate(-1266.99 -1235.394)" fill="#c356ff"/>
              <path id="Path_3487" data-name="Path 3487" d="M1363.421,1215.229l-.011.007a.952.952,0,1,0,.965,1.642l.011-.006a.952.952,0,0,0-.965-1.642Z" transform="translate(-1332.213 -1197.032)" fill="#c356ff"/>
              <path id="Path_3488" data-name="Path 3488" d="M1317.627,1242.168a.952.952,0,1,0,.969,1.64l.011-.006a.947.947,0,0,0,.33-1.3A.958.958,0,0,0,1317.627,1242.168Z" transform="translate(-1299.601 -1216.22)" fill="#c356ff"/>
              <path id="Path_3489" data-name="Path 3489" d="M1378.667,1206.279a.952.952,0,1,0,.969,1.64l.011-.007a.947.947,0,0,0,.33-1.3A.958.958,0,0,0,1378.667,1206.279Z" transform="translate(-1343.083 -1190.654)" fill="#c356ff"/>
              <path id="Path_3490" data-name="Path 3490" d="M1454.968,1161.417a.952.952,0,1,0,.969,1.64l.011-.007a.947.947,0,0,0,.33-1.3A.958.958,0,0,0,1454.968,1161.417Z" transform="translate(-1397.436 -1158.697)" fill="#c356ff"/>
              <path id="Path_3491" data-name="Path 3491" d="M1470.24,1152.423l-.011.006a.952.952,0,1,0,.965,1.642l.011-.007a.952.952,0,1,0-.965-1.642Z" transform="translate(-1408.306 -1152.291)" fill="#c356ff"/>
              <path id="Path_3492" data-name="Path 3492" d="M1439.72,1170.368l-.011.006a.952.952,0,0,0,.965,1.643l.011-.007a.952.952,0,1,0-.965-1.642Z" transform="translate(-1386.565 -1165.074)" fill="#c356ff"/>
              <path id="Path_3493" data-name="Path 3493" d="M1393.936,1197.3a.952.952,0,1,0,.951,1.65l.011-.006a.947.947,0,0,0,.344-1.3A.958.958,0,0,0,1393.936,1197.3Z" transform="translate(-1353.953 -1184.262)" fill="#c356ff"/>
              <path id="Path_3494" data-name="Path 3494" d="M1424.448,1179.362a.952.952,0,1,0,.969,1.64l.011-.007a.947.947,0,0,0,.33-1.3A.958.958,0,0,0,1424.448,1179.362Z" transform="translate(-1375.695 -1171.48)" fill="#c356ff"/>
              <path id="Path_3495" data-name="Path 3495" d="M1409.2,1188.312l-.011.007a.952.952,0,1,0,.965,1.642l.011-.006a.952.952,0,1,0-.965-1.642Z" transform="translate(-1364.824 -1177.857)" fill="#c356ff"/>
            </g>
            <g id="Group_5115" data-name="Group 5115" transform="translate(194.362 98.71)">
              <path id="Path_3496" data-name="Path 3496" d="M1869.8,791.578a.952.952,0,0,0-.952.952v.013a.947.947,0,0,0,.952.946.956.956,0,0,0,0-1.911Z" transform="translate(-1868.851 -771.21)" fill="#c356ff"/>
              <path id="Path_3497" data-name="Path 3497" d="M1869.8,773.876a.952.952,0,0,0-.952.952v.013a.952.952,0,0,0,1.9,0v-.013A.952.952,0,0,0,1869.8,773.876Z" transform="translate(-1868.851 -758.6)" fill="#c356ff"/>
              <path id="Path_3498" data-name="Path 3498" d="M1869.8,809.281a.952.952,0,0,0-.952.952v.013a.952.952,0,1,0,1.9,0v-.013A.952.952,0,0,0,1869.8,809.281Z" transform="translate(-1868.851 -783.821)" fill="#c356ff"/>
              <path id="Path_3499" data-name="Path 3499" d="M1869.8,826.983a.952.952,0,0,0-.952.952v.013a.952.952,0,0,0,1.9,0v-.013A.952.952,0,0,0,1869.8,826.983Z" transform="translate(-1868.851 -796.431)" fill="#c356ff"/>
              <path id="Path_3500" data-name="Path 3500" d="M1869.8,720.769a.952.952,0,0,0-.952.952v.013a.952.952,0,0,0,1.9,0v-.013A.952.952,0,0,0,1869.8,720.769Z" transform="translate(-1868.851 -720.769)" fill="#c356ff"/>
              <path id="Path_3501" data-name="Path 3501" d="M1869.8,756.174a.952.952,0,0,0-.952.952v.013a.952.952,0,0,0,1.9,0v-.013A.952.952,0,0,0,1869.8,756.174Z" transform="translate(-1868.851 -745.99)" fill="#c356ff"/>
              <path id="Path_3502" data-name="Path 3502" d="M1869.8,738.471a.952.952,0,0,0-.952.952v.013a.952.952,0,1,0,1.9,0v-.013A.953.953,0,0,0,1869.8,738.471Z" transform="translate(-1868.851 -733.379)" fill="#c356ff"/>
            </g>
            <g id="Group_5123" data-name="Group 5123" transform="translate(157.248 4.748)">
              <g id="Group_5122" data-name="Group 5122" style="isolation: isolate">
                <g id="Group_5117" data-name="Group 5117" transform="translate(0.129)">
                  <g id="Group_5116" data-name="Group 5116">
                    <path id="Path_3503" data-name="Path 3503" d="M1741.817,417.415,1779.5,439.17l37.436-21.755-37.681-21.755Z" transform="translate(-1741.373 -395.215)" fill="#935dff"/>
                    <path id="Path_3504" data-name="Path 3504" d="M1816.055,415.929l-37.681-21.755a.445.445,0,0,0-.446,0l-37.436,21.755a.444.444,0,0,0,0,.769l37.681,21.755a.445.445,0,0,0,.446,0l37.436-21.755a.445.445,0,0,0,0-.769ZM1778.4,437.556,1741.6,416.313l36.55-21.24,36.793,21.243Z" transform="translate(-1740.272 -394.115)" fill="#c356ff"/>
                  </g>
                </g>
                <g id="Group_5119" data-name="Group 5119" transform="translate(37.681 21.755)">
                  <g id="Group_5118" data-name="Group 5118">
                    <path id="Path_3505" data-name="Path 3505" d="M1872.364,538.536l37.436-21.755.129-45.491-37.436,21.755Z" transform="translate(-1871.919 -470.845)" fill="#67119e"/>
                    <path id="Path_3506" data-name="Path 3506" d="M1909.05,469.8a.444.444,0,0,0-.446,0l-37.436,21.755a.444.444,0,0,0-.221.383l-.129,45.491a.445.445,0,0,0,.668.385l37.436-21.755a.444.444,0,0,0,.221-.383l.129-45.491A.444.444,0,0,0,1909.05,469.8Zm-.8,45.62-36.545,21.238.126-44.461,36.546-21.238Z" transform="translate(-1870.818 -469.745)" fill="#c356ff"/>
                  </g>
                </g>
                <g id="Group_5121" data-name="Group 5121" transform="translate(0 21.755)">
                  <g id="Group_5120" data-name="Group 5120">
                    <path id="Path_3507" data-name="Path 3507" d="M1741.369,516.782l37.681,21.755.129-45.491L1741.5,471.291Z" transform="translate(-1740.924 -470.846)" fill="#9d3eec"/>
                    <path id="Path_3508" data-name="Path 3508" d="M1778.3,491.56l-37.681-21.755a.444.444,0,0,0-.667.383l-.129,45.491a.445.445,0,0,0,.222.386l37.681,21.755a.444.444,0,0,0,.667-.383l.129-45.491A.445.445,0,0,0,1778.3,491.56Zm-.793,45.108-36.793-21.243.126-44.466,36.793,21.242Z" transform="translate(-1739.823 -469.746)" fill="#c356ff"/>
                  </g>
                </g>
              </g>
            </g>
            <g id="Group_5131" data-name="Group 5131" transform="translate(343.175 226.725)">
              <g id="Group_5130" data-name="Group 5130" style="isolation: isolate">
                <g id="Group_5125" data-name="Group 5125" transform="translate(0.129)">
                  <g id="Group_5124" data-name="Group 5124">
                    <path id="Path_3509" data-name="Path 3509" d="M2388.185,1189.106l37.681,21.755,37.436-21.755-37.681-21.755Z" transform="translate(-2387.74 -1166.907)" fill="#935dff"/>
                    <path id="Path_3510" data-name="Path 3510" d="M2462.422,1187.621l-37.68-21.755a.446.446,0,0,0-.446,0l-37.436,21.755a.444.444,0,0,0,0,.769l37.681,21.755a.446.446,0,0,0,.446,0l37.436-21.755a.444.444,0,0,0,0-.769Zm-37.658,21.627-36.793-21.243,36.55-21.24,36.793,21.243Z" transform="translate(-2386.639 -1165.807)" fill="#c356ff"/>
                  </g>
                </g>
                <g id="Group_5127" data-name="Group 5127" transform="translate(37.681 21.755)">
                  <g id="Group_5126" data-name="Group 5126">
                    <path id="Path_3511" data-name="Path 3511" d="M2518.731,1310.228l37.436-21.755.129-45.491-37.436,21.755Z" transform="translate(-2518.287 -1242.537)" fill="#67119e"/>
                    <path id="Path_3512" data-name="Path 3512" d="M2555.417,1241.5a.447.447,0,0,0-.446,0l-37.436,21.755a.444.444,0,0,0-.221.383l-.129,45.491a.445.445,0,0,0,.668.386l37.436-21.755a.444.444,0,0,0,.221-.383l.129-45.491A.445.445,0,0,0,2555.417,1241.5Zm-.795,45.62-36.545,21.238.126-44.461,36.545-21.238Z" transform="translate(-2517.186 -1241.437)" fill="#c356ff"/>
                  </g>
                </g>
                <g id="Group_5129" data-name="Group 5129" transform="translate(0 21.755)">
                  <g id="Group_5128" data-name="Group 5128">
                    <path id="Path_3513" data-name="Path 3513" d="M2387.736,1288.474l37.681,21.755.129-45.491-37.68-21.755Z" transform="translate(-2387.292 -1242.538)" fill="#9d3eec"/>
                    <path id="Path_3514" data-name="Path 3514" d="M2424.667,1263.252l-37.681-21.755a.445.445,0,0,0-.667.384l-.129,45.491a.444.444,0,0,0,.222.386l37.681,21.755a.444.444,0,0,0,.667-.384l.129-45.491A.445.445,0,0,0,2424.667,1263.252Zm-.793,45.108-36.793-21.243.126-44.466L2424,1263.893Z" transform="translate(-2386.191 -1241.437)" fill="#c356ff"/>
                  </g>
                </g>
              </g>
            </g>
            <g id="Group_5132" data-name="Group 5132" transform="translate(380.544 169.251)">
              <path id="Path_3515" data-name="Path 3515" d="M2516.8,966a.7.7,0,0,0-.7.7v78.528a.7.7,0,1,0,1.4,0V966.7A.7.7,0,0,0,2516.8,966Z" transform="translate(-2516.101 -966.003)" fill="#c356ff"/>
            </g>
            <g id="Group_5140" data-name="Group 5140" transform="translate(343.175 109.21)">
              <g id="Group_5139" data-name="Group 5139" style="isolation: isolate">
                <g id="Group_5134" data-name="Group 5134" transform="translate(0.129)">
                  <g id="Group_5133" data-name="Group 5133">
                    <path id="Path_3516" data-name="Path 3516" d="M2388.185,780.572l37.681,21.755,37.436-21.755-37.681-21.755Z" transform="translate(-2387.74 -758.372)" fill="#935dff"/>
                    <path id="Path_3517" data-name="Path 3517" d="M2462.422,779.086l-37.68-21.755a.446.446,0,0,0-.446,0l-37.436,21.755a.444.444,0,0,0,0,.769l37.681,21.755a.445.445,0,0,0,.446,0l37.436-21.756a.444.444,0,0,0,0-.769Zm-37.658,21.627L2387.97,779.47l36.55-21.24,36.793,21.243Z" transform="translate(-2386.639 -757.272)" fill="#c356ff"/>
                  </g>
                </g>
                <g id="Group_5136" data-name="Group 5136" transform="translate(37.681 21.755)">
                  <g id="Group_5135" data-name="Group 5135">
                    <path id="Path_3518" data-name="Path 3518" d="M2518.731,901.693l37.436-21.755.129-45.491L2518.86,856.2Z" transform="translate(-2518.287 -834.002)" fill="#67119e"/>
                    <path id="Path_3519" data-name="Path 3519" d="M2555.417,832.961a.446.446,0,0,0-.446,0l-37.436,21.756a.444.444,0,0,0-.221.383l-.129,45.491a.445.445,0,0,0,.668.385l37.436-21.755a.444.444,0,0,0,.221-.383l.129-45.491A.445.445,0,0,0,2555.417,832.961Zm-.795,45.62-36.545,21.238.126-44.461,36.545-21.238Z" transform="translate(-2517.186 -832.902)" fill="#c356ff"/>
                  </g>
                </g>
                <g id="Group_5138" data-name="Group 5138" transform="translate(0 21.755)">
                  <g id="Group_5137" data-name="Group 5137">
                    <path id="Path_3520" data-name="Path 3520" d="M2387.736,879.939l37.681,21.755.129-45.491-37.68-21.755Z" transform="translate(-2387.292 -834.003)" fill="#9d3eec"/>
                    <path id="Path_3521" data-name="Path 3521" d="M2424.667,854.717l-37.681-21.755a.445.445,0,0,0-.667.384l-.129,45.491a.444.444,0,0,0,.222.386l37.681,21.755a.444.444,0,0,0,.667-.384l.129-45.491A.445.445,0,0,0,2424.667,854.717Zm-.793,45.108-36.793-21.243.126-44.466L2424,855.358Z" transform="translate(-2386.191 -832.902)" fill="#c356ff"/>
                  </g>
                </g>
              </g>
            </g>
            <g id="Group_5141" data-name="Group 5141" transform="translate(380.544 58.659)">
              <path id="Path_3522" data-name="Path 3522" d="M2516.8,581.535a.7.7,0,0,0-.7.7v71.095a.7.7,0,1,0,1.4,0V582.233A.7.7,0,0,0,2516.8,581.535Z" transform="translate(-2516.101 -581.535)" fill="#c356ff"/>
            </g>
            <g id="Group_5149" data-name="Group 5149" transform="translate(343.175 5.891)">
              <g id="Group_5148" data-name="Group 5148" style="isolation: isolate">
                <g id="Group_5143" data-name="Group 5143" transform="translate(0.129)">
                  <g id="Group_5142" data-name="Group 5142">
                    <path id="Path_3523" data-name="Path 3523" d="M2388.185,421.388l37.681,21.755,37.436-21.755-37.681-21.755Z" transform="translate(-2387.74 -399.188)" fill="#935dff"/>
                    <path id="Path_3524" data-name="Path 3524" d="M2462.422,419.9l-37.68-21.755a.444.444,0,0,0-.446,0L2386.86,419.9a.444.444,0,0,0,0,.769l37.681,21.755a.445.445,0,0,0,.446,0l37.436-21.755a.444.444,0,0,0,0-.769Zm-37.658,21.626-36.793-21.242,36.55-21.241,36.793,21.243Z" transform="translate(-2386.639 -398.088)" fill="#c356ff"/>
                  </g>
                </g>
                <g id="Group_5145" data-name="Group 5145" transform="translate(37.681 21.755)">
                  <g id="Group_5144" data-name="Group 5144">
                    <path id="Path_3525" data-name="Path 3525" d="M2518.731,542.509l37.436-21.755.129-45.491-37.436,21.755Z" transform="translate(-2518.287 -474.818)" fill="#67119e"/>
                    <path id="Path_3526" data-name="Path 3526" d="M2555.417,473.777a.445.445,0,0,0-.446,0l-37.436,21.755a.444.444,0,0,0-.221.383l-.129,45.491a.445.445,0,0,0,.668.385l37.436-21.755a.444.444,0,0,0,.221-.383l.129-45.491A.444.444,0,0,0,2555.417,473.777Zm-.795,45.62-36.545,21.238.126-44.461,36.545-21.238Z" transform="translate(-2517.186 -473.718)" fill="#c356ff"/>
                  </g>
                </g>
                <g id="Group_5147" data-name="Group 5147" transform="translate(0 21.755)">
                  <g id="Group_5146" data-name="Group 5146">
                    <path id="Path_3527" data-name="Path 3527" d="M2387.736,520.755l37.681,21.755.129-45.491-37.68-21.755Z" transform="translate(-2387.292 -474.819)" fill="#9d3eec"/>
                    <path id="Path_3528" data-name="Path 3528" d="M2424.667,495.533l-37.681-21.755a.445.445,0,0,0-.667.384l-.129,45.491a.444.444,0,0,0,.222.386l37.681,21.755a.444.444,0,0,0,.667-.384l.129-45.491A.444.444,0,0,0,2424.667,495.533Zm-.793,45.107L2387.081,519.4l.126-44.466L2424,496.174Z" transform="translate(-2386.191 -473.718)" fill="#c356ff"/>
                  </g>
                </g>
              </g>
            </g>
            <g id="Group_5153" data-name="Group 5153" transform="translate(399.517 61.168)">
              <g id="Group_5152" data-name="Group 5152">
                <g id="Group_5150" data-name="Group 5150">
                  <path id="Path_3529" data-name="Path 3529" d="M2657.6,635.9l-74.479-45.537a.7.7,0,1,0-.729,1.192l74.479,45.537a.7.7,0,0,0,.729-1.192Z" transform="translate(-2582.06 -590.257)" fill="#c356ff"/>
                </g>
                <g id="Group_5151" data-name="Group 5151" transform="translate(72.987 44.08)">
                  <path id="Path_3530" data-name="Path 3530" d="M2838.993,743.807a2.1,2.1,0,1,0,.7,2.888A2.1,2.1,0,0,0,2838.993,743.807Z" transform="translate(-2835.796 -743.498)" fill="#c356ff"/>
                </g>
              </g>
            </g>
            <g id="Group_5154" data-name="Group 5154" transform="translate(478.627 109.018)">
              <path id="Path_3531" data-name="Path 3531" d="M2903.788,784.551l-.011-.007a.947.947,0,0,0-1.3.316.958.958,0,0,0,.318,1.313.952.952,0,0,0,1-1.622Z" transform="translate(-2889.317 -776.407)" fill="#c356ff"/>
              <path id="Path_3532" data-name="Path 3532" d="M2933.957,803.087l-.011-.007a.947.947,0,0,0-1.306.31.956.956,0,1,0,1.317-.3Z" transform="translate(-2910.805 -789.609)" fill="#c356ff"/>
              <path id="Path_3533" data-name="Path 3533" d="M2918.87,793.817l-.011-.007a.947.947,0,0,0-1.3.316.957.957,0,0,0,.318,1.313.952.952,0,0,0,1-1.623Z" transform="translate(-2900.061 -783.008)" fill="#c356ff"/>
              <path id="Path_3534" data-name="Path 3534" d="M2888.7,775.284l-.011-.007a.947.947,0,0,0-1.3.316.958.958,0,0,0,.318,1.313.952.952,0,0,0,1-1.622Z" transform="translate(-2878.572 -769.806)" fill="#c356ff"/>
              <path id="Path_3535" data-name="Path 3535" d="M2873.625,766.019l-.011-.007a.947.947,0,0,0-1.306.31.958.958,0,0,0,.312,1.315.952.952,0,0,0,1-1.618Z" transform="translate(-2867.828 -763.204)" fill="#c356ff"/>
              <path id="Path_3536" data-name="Path 3536" d="M2858.539,756.75l-.011-.007a.947.947,0,0,0-1.3.316.958.958,0,0,0,.318,1.313.952.952,0,0,0,1-1.622Z" transform="translate(-2857.083 -756.603)" fill="#c356ff"/>
              <path id="Path_3537" data-name="Path 3537" d="M3024.455,858.688l-.011-.007a.947.947,0,0,0-1.306.31.958.958,0,0,0,.312,1.315.952.952,0,1,0,1-1.618Z" transform="translate(-2975.271 -829.217)" fill="#c356ff"/>
              <path id="Path_3538" data-name="Path 3538" d="M3009.347,849.414l-.011-.007a.952.952,0,1,0-.989,1.628l.011.007a.952.952,0,0,0,.99-1.628Z" transform="translate(-2964.51 -822.613)" fill="#c356ff"/>
              <path id="Path_3539" data-name="Path 3539" d="M3039.534,867.953l-.011-.007a.947.947,0,0,0-1.3.316.955.955,0,1,0,1.315-.309Z" transform="translate(-2986.016 -835.818)" fill="#c356ff"/>
              <path id="Path_3540" data-name="Path 3540" d="M2994.285,840.152l-.011-.007a.947.947,0,0,0-1.3.316.955.955,0,1,0,1.315-.309Z" transform="translate(-2953.782 -816.015)" fill="#c356ff"/>
              <path id="Path_3541" data-name="Path 3541" d="M2949.036,812.351l-.011-.007a.947.947,0,0,0-1.3.316.957.957,0,0,0,.318,1.313.952.952,0,0,0,1-1.623Z" transform="translate(-2921.55 -796.211)" fill="#c356ff"/>
              <path id="Path_3542" data-name="Path 3542" d="M2964.12,821.618l-.011-.007a.947.947,0,0,0-1.3.316.955.955,0,1,0,1.316-.309Z" transform="translate(-2932.294 -802.812)" fill="#c356ff"/>
              <path id="Path_3543" data-name="Path 3543" d="M2979.184,830.882l-.011-.007a.952.952,0,0,0-1,1.623l.011.007a.952.952,0,0,0,1-1.624Z" transform="translate(-2943.021 -809.411)" fill="#c356ff"/>
            </g>
            <g id="Group_5155" data-name="Group 5155" transform="translate(411.789 22.667)" opacity="0.4">
              <path id="Path_3544" data-name="Path 3544" d="M2802.612,521.734,2717.936,472.2a.888.888,0,0,0-.894,0l-31.733,18.372-59.252-34.039a.889.889,0,0,0-.885,1.542l59.7,34.294a.89.89,0,0,0,.888,0l31.729-18.37,84.23,49.275a.889.889,0,1,0,.9-1.535Z" transform="translate(-2624.724 -456.411)" fill="#c356ff"/>
            </g>
            <g id="Group_5156" data-name="Group 5156" transform="translate(17.345 10.114)" opacity="0.4">
              <path id="Path_3545" data-name="Path 3545" d="M1366.658,412.814,1302.467,450.4l-48.528-29.116a.318.318,0,0,0-.327.545l48.689,29.213a.316.316,0,0,0,.163.045.32.32,0,0,0,.16-.043l64.354-37.681a.317.317,0,1,0-.321-.548Z" transform="translate(-1253.458 -412.77)" fill="#c356ff"/>
            </g>
            <g id="Group_5157" data-name="Group 5157" transform="translate(237.196 172.918)">
              <path id="Path_3546" data-name="Path 3546" d="M2020.448,978.984a1.8,1.8,0,1,0,.676,2.453A1.8,1.8,0,0,0,2020.448,978.984Z" transform="translate(-2017.76 -978.749)" fill="#c356ff"/>
              <path id="Path_3547" data-name="Path 3547" d="M2039.124,989.592a1.8,1.8,0,1,0,.676,2.453A1.8,1.8,0,0,0,2039.124,989.592Z" transform="translate(-2031.064 -986.306)" fill="#c356ff"/>
              <path id="Path_3548" data-name="Path 3548" d="M2057.8,1000.2a1.8,1.8,0,1,0,.676,2.453A1.8,1.8,0,0,0,2057.8,1000.2Z" transform="translate(-2044.368 -993.861)" fill="#c356ff"/>
            </g>
            <g id="Group_5158" data-name="Group 5158" transform="translate(138.961 172.306)">
              <path id="Path_3549" data-name="Path 3549" d="M1714.516,976.857a1.8,1.8,0,1,0,2.453.676A1.8,1.8,0,0,0,1714.516,976.857Z" transform="translate(-1702.86 -976.622)" fill="#c356ff"/>
              <path id="Path_3550" data-name="Path 3550" d="M1695.84,987.465a1.8,1.8,0,1,0,2.453.676A1.8,1.8,0,0,0,1695.84,987.465Z" transform="translate(-1689.556 -984.179)" fill="#c356ff"/>
              <path id="Path_3551" data-name="Path 3551" d="M1677.163,998.073a1.8,1.8,0,1,0,2.453.676A1.8,1.8,0,0,0,1677.163,998.073Z" transform="translate(-1676.252 -991.735)" fill="#c356ff"/>
            </g>
            <g id="Group_5159" data-name="Group 5159" transform="translate(373.709 208.022)">
              <path id="Path_3552" data-name="Path 3552" d="M2494.174,1143.736a1.8,1.8,0,1,0,1.762,1.835A1.8,1.8,0,0,0,2494.174,1143.736Z" transform="translate(-2492.339 -1131.382)" fill="#c356ff"/>
              <path id="Path_3553" data-name="Path 3553" d="M2494.6,1122.262a1.8,1.8,0,1,0,1.763,1.835A1.8,1.8,0,0,0,2494.6,1122.262Z" transform="translate(-2492.646 -1116.085)" fill="#c356ff"/>
              <path id="Path_3554" data-name="Path 3554" d="M2495.035,1100.788a1.8,1.8,0,1,0,1.763,1.835A1.8,1.8,0,0,0,2495.035,1100.788Z" transform="translate(-2492.952 -1100.788)" fill="#c356ff"/>
            </g>
            <g id="Group_5160" data-name="Group 5160" transform="translate(427.313 71.265)">
              <path id="Path_3555" data-name="Path 3555" d="M2681.38,625.594a1.8,1.8,0,1,0,.676,2.453A1.8,1.8,0,0,0,2681.38,625.594Z" transform="translate(-2678.692 -625.359)" fill="#c356ff"/>
              <path id="Path_3556" data-name="Path 3556" d="M2700.057,636.2a1.8,1.8,0,1,0,.676,2.453A1.8,1.8,0,0,0,2700.057,636.2Z" transform="translate(-2691.997 -632.916)" fill="#c356ff"/>
              <path id="Path_3557" data-name="Path 3557" d="M2718.734,646.809a1.8,1.8,0,1,0,.676,2.453A1.8,1.8,0,0,0,2718.734,646.809Z" transform="translate(-2705.301 -640.471)" fill="#c356ff"/>
            </g>
            <g id="Group_5161" data-name="Group 5161" transform="translate(174.865 162.806)">
              <path id="Path_3558" data-name="Path 3558" d="M1802.808,943.832c-.956-.552-1.734-.109-1.738.99a3.8,3.8,0,0,0,1.726,2.99c.956.552,1.734.109,1.737-.99A3.8,3.8,0,0,0,1802.808,943.832Z" transform="translate(-1801.07 -943.594)" fill="#c356ff"/>
            </g>
            <g id="Group_5162" data-name="Group 5162" transform="translate(212.423 162.805)">
              <path id="Path_3559" data-name="Path 3559" d="M1933.365,943.831a3.8,3.8,0,0,0-1.726,2.989c0,1.1.781,1.542,1.737.99a3.8,3.8,0,0,0,1.726-2.989C1935.1,943.722,1934.321,943.279,1933.365,943.831Z" transform="translate(-1931.639 -943.594)" fill="#c356ff"/>
            </g>
            <g id="Group_5163" data-name="Group 5163" transform="translate(399.542 162.805)">
              <path id="Path_3560" data-name="Path 3560" d="M2583.874,943.831a3.8,3.8,0,0,0-1.726,2.989c0,1.1.781,1.542,1.737.99a3.8,3.8,0,0,0,1.726-2.989C2585.608,943.722,2584.83,943.279,2583.874,943.831Z" transform="translate(-2582.148 -943.594)" fill="#c356ff"/>
            </g>
            <g id="Group_5164" data-name="Group 5164" transform="translate(119.688 221.119)">
              <path id="Path_3561" data-name="Path 3561" d="M1610.975,1146.556a3.8,3.8,0,0,0-1.726,2.989c0,1.1.781,1.542,1.737.99a3.8,3.8,0,0,0,1.726-2.989C1612.709,1146.447,1611.931,1146,1610.975,1146.556Z" transform="translate(-1609.249 -1146.318)" fill="#c356ff"/>
            </g>
            <g id="Group_5165" data-name="Group 5165" transform="translate(268.346 222.155)">
              <path id="Path_3562" data-name="Path 3562" d="M2127.789,1150.156c-.957-.552-1.735-.109-1.738.99a3.8,3.8,0,0,0,1.726,2.99c.956.552,1.734.109,1.737-.99A3.8,3.8,0,0,0,2127.789,1150.156Z" transform="translate(-2126.051 -1149.918)" fill="#c356ff"/>
            </g>
            <path id="Path_3563" data-name="Path 3563" d="M2514.385,829.86a3.8,3.8,0,0,0-3.448.161,1.057,1.057,0,0,0,.105,2,3.8,3.8,0,0,0,3.448-.162A1.056,1.056,0,0,0,2514.385,829.86Z" transform="translate(-2131.406 -699.53)" fill="#c356ff"/>
            <path id="Path_3564" data-name="Path 3564" d="M2514.385,1238.395a3.8,3.8,0,0,0-3.448.162,1.057,1.057,0,0,0,.105,2,3.8,3.8,0,0,0,3.448-.162A1.056,1.056,0,0,0,2514.385,1238.395Z" transform="translate(-2131.406 -990.55)" fill="#c356ff"/>
            <g id="Group_5166" data-name="Group 5166" transform="translate(398.351 59.486)">
              <path id="Path_3565" data-name="Path 3565" d="M2579.733,584.648a3.8,3.8,0,0,0-1.726,2.989c0,1.1.781,1.542,1.737.99a3.8,3.8,0,0,0,1.726-2.989C2581.467,584.538,2580.689,584.1,2579.733,584.648Z" transform="translate(-2578.007 -584.41)" fill="#c356ff"/>
            </g>
            <path id="Path_3566" data-name="Path 3566" d="M1545.961,1020.04a3.8,3.8,0,0,0-3.448.161,1.057,1.057,0,0,0,.106,2,3.8,3.8,0,0,0,3.448-.162A1.056,1.056,0,0,0,1545.961,1020.04Z" transform="translate(-1441.549 -835.005)" fill="#c356ff"/>
            <g id="Group_5170" data-name="Group 5170" transform="translate(100.665 134.845)">
              <line id="Line_4" data-name="Line 4" y1="50.434" transform="translate(2.101)" fill="#fff"/>
              <g id="Group_5169" data-name="Group 5169" transform="translate(0 0)">
                <g id="Group_5167" data-name="Group 5167" transform="translate(1.402 1.297)">
                  <path id="Path_3567" data-name="Path 3567" d="M1548.691,900.736a.7.7,0,0,1-.7-.7V851.6a.7.7,0,0,1,1.4,0v48.438A.7.7,0,0,1,1548.691,900.736Z" transform="translate(-1547.993 -850.901)" fill="#c356ff"/>
                </g>
                <g id="Group_5168" data-name="Group 5168">
                  <path id="Path_3568" data-name="Path 3568" d="M1547.32,848.492a2.1,2.1,0,1,0-2.1,2.1A2.1,2.1,0,0,0,1547.32,848.492Z" transform="translate(-1543.118 -846.391)" fill="#c356ff"/>
                </g>
              </g>
            </g>
            <g id="Group_5173" data-name="Group 5173" transform="translate(400.817 164.822)">
              <g id="Group_5171" data-name="Group 5171">
                <path id="Path_3569" data-name="Path 3569" d="M2656.815,1027.759a.7.7,0,0,1-.7-.7V992.2l-69.191-40.294a.7.7,0,0,1,.7-1.207l69.538,40.5a.7.7,0,0,1,.347.6v35.262A.7.7,0,0,1,2656.815,1027.759Z" transform="translate(-2586.579 -950.604)" fill="#c356ff"/>
              </g>
              <g id="Group_5172" data-name="Group 5172" transform="translate(68.136 74.251)">
                <path id="Path_3570" data-name="Path 3570" d="M2823.449,1210.835a2.1,2.1,0,1,0,2.1-2.1A2.1,2.1,0,0,0,2823.449,1210.835Z" transform="translate(-2823.449 -1208.734)" fill="#c356ff"/>
              </g>
            </g>
            <g id="Group_5177" data-name="Group 5177" transform="translate(120.944 223.071)">
              <line id="Line_5" data-name="Line 5" x2="52.418" y2="31.025" transform="translate(0.698 0.698)" fill="#fff"/>
              <g id="Group_5176" data-name="Group 5176">
                <g id="Group_5174" data-name="Group 5174">
                  <path id="Path_3571" data-name="Path 3571" d="M1665.014,1184.507a.7.7,0,0,1-.355-.1l-50.7-30.008a.7.7,0,1,1,.712-1.2l50.7,30.008a.7.7,0,0,1-.356,1.3Z" transform="translate(-1613.616 -1153.102)" fill="#c356ff"/>
                </g>
                <g id="Group_5175" data-name="Group 5175" transform="translate(48.765 28.11)">
                  <circle id="Ellipse_10" data-name="Ellipse 10" cx="2.101" cy="2.101" r="2.101" transform="translate(0 1.008) rotate(-13.884)" fill="#c356ff"/>
                </g>
              </g>
            </g>
            <g id="Group_5181" data-name="Group 5181" transform="translate(223.321 223.917)">
              <line id="Line_6" data-name="Line 6" x1="46.636" y2="27.583" transform="translate(0.293 0.699)" fill="#fff"/>
              <g id="Group_5180" data-name="Group 5180">
                <g id="Group_5178" data-name="Group 5178" transform="translate(1.312)">
                  <path id="Path_3572" data-name="Path 3572" d="M1974.784,1184.009a.7.7,0,0,1-.356-1.3l44.919-26.567a.7.7,0,0,1,.711,1.2l-44.919,26.567A.7.7,0,0,1,1974.784,1184.009Z" transform="translate(-1974.085 -1156.045)" fill="#c356ff"/>
                </g>
                <g id="Group_5179" data-name="Group 5179" transform="translate(0 25.111)">
                  <path id="Path_3573" data-name="Path 3573" d="M1970.555,1243.635a2.1,2.1,0,1,0,2.877.739A2.1,2.1,0,0,0,1970.555,1243.635Z" transform="translate(-1969.524 -1243.342)" fill="#c356ff"/>
                </g>
              </g>
            </g>
            <g id="Group_5182" data-name="Group 5182" transform="translate(470.07 246.48)">
              <path id="Path_3574" data-name="Path 3574" d="M2828.373,1287.591a.958.958,0,0,0-.951.96.952.952,0,0,0,1.9,0v-.013A.947.947,0,0,0,2828.373,1287.591Z" transform="translate(-2827.397 -1272.315)" fill="#c356ff"/>
              <path id="Path_3575" data-name="Path 3575" d="M2828.435,1323a.956.956,0,1,0,.949.962v-.013A.947.947,0,0,0,2828.435,1323Z" transform="translate(-2827.438 -1297.536)" fill="#c356ff"/>
              <path id="Path_3576" data-name="Path 3576" d="M2828.4,1305.293a.958.958,0,0,0-.951.96.953.953,0,0,0,1.905,0v-.013A.947.947,0,0,0,2828.4,1305.293Z" transform="translate(-2827.417 -1284.925)" fill="#c356ff"/>
              <path id="Path_3577" data-name="Path 3577" d="M2828.343,1269.889a.956.956,0,1,0,.954.958v-.013A.947.947,0,0,0,2828.343,1269.889Z" transform="translate(-2827.375 -1259.705)" fill="#c356ff"/>
              <path id="Path_3578" data-name="Path 3578" d="M2828.318,1252.187a.956.956,0,1,0,.95.962v-.013A.947.947,0,0,0,2828.318,1252.187Z" transform="translate(-2827.355 -1247.095)" fill="#c356ff"/>
              <path id="Path_3579" data-name="Path 3579" d="M2828.285,1234.484a.958.958,0,0,0-.951.96.952.952,0,0,0,1.9,0v-.013A.947.947,0,0,0,2828.285,1234.484Z" transform="translate(-2827.334 -1234.484)" fill="#c356ff"/>
              <path id="Path_3580" data-name="Path 3580" d="M2828.611,1429.21a.957.957,0,0,0-.955.956.952.952,0,0,0,1.9.005v-.013A.947.947,0,0,0,2828.611,1429.21Z" transform="translate(-2827.563 -1373.197)" fill="#c356ff"/>
              <path id="Path_3581" data-name="Path 3581" d="M2828.572,1411.485a.953.953,0,0,0-.946.958v.013a.952.952,0,0,0,1.9-.012v-.013A.952.952,0,0,0,2828.572,1411.485Z" transform="translate(-2827.542 -1360.571)" fill="#c356ff"/>
              <path id="Path_3582" data-name="Path 3582" d="M2828.636,1446.912a.956.956,0,1,0,.954.958v-.013A.947.947,0,0,0,2828.636,1446.912Z" transform="translate(-2827.584 -1385.807)" fill="#c356ff"/>
              <path id="Path_3583" data-name="Path 3583" d="M2828.548,1393.805a.956.956,0,1,0,.954.958v-.013A.947.947,0,0,0,2828.548,1393.805Z" transform="translate(-2827.521 -1347.976)" fill="#c356ff"/>
              <path id="Path_3584" data-name="Path 3584" d="M2828.46,1340.7a.959.959,0,0,0-.951.96.953.953,0,0,0,1.905,0v-.013A.947.947,0,0,0,2828.46,1340.7Z" transform="translate(-2827.459 -1310.146)" fill="#c356ff"/>
              <path id="Path_3585" data-name="Path 3585" d="M2828.49,1358.4a.958.958,0,0,0-.951.96.952.952,0,0,0,1.9,0v-.013A.947.947,0,0,0,2828.49,1358.4Z" transform="translate(-2827.48 -1322.756)" fill="#c356ff"/>
              <path id="Path_3586" data-name="Path 3586" d="M2828.518,1376.081a.952.952,0,0,0-.95.954v.013a.952.952,0,0,0,1.9,0v-.013A.952.952,0,0,0,2828.518,1376.081Z" transform="translate(-2827.501 -1335.351)" fill="#c356ff"/>
            </g>
            <g id="Group_5183" data-name="Group 5183" transform="translate(101.763)">
              <path id="Path_3587" data-name="Path 3587" d="M1547.974,430.717a.957.957,0,0,0-.951.96.952.952,0,1,0,1.9,0v-.013A.947.947,0,0,0,1547.974,430.717Z" transform="translate(-1546.998 -415.441)" fill="#c356ff"/>
              <path id="Path_3588" data-name="Path 3588" d="M1548.036,466.121a.958.958,0,0,0-.955.956.952.952,0,1,0,1.9.005v-.013A.947.947,0,0,0,1548.036,466.121Z" transform="translate(-1547.039 -440.661)" fill="#c356ff"/>
              <path id="Path_3589" data-name="Path 3589" d="M1548,448.419a.956.956,0,1,0,.953.958v-.013A.947.947,0,0,0,1548,448.419Z" transform="translate(-1547.018 -428.051)" fill="#c356ff"/>
              <path id="Path_3590" data-name="Path 3590" d="M1547.944,413.014a.958.958,0,0,0-.951.96.952.952,0,0,0,1.9,0v-.013A.947.947,0,0,0,1547.944,413.014Z" transform="translate(-1546.976 -402.83)" fill="#c356ff"/>
              <path id="Path_3591" data-name="Path 3591" d="M1547.919,395.312a.958.958,0,0,0-.955.956.952.952,0,0,0,1.9.005v-.013A.947.947,0,0,0,1547.919,395.312Z" transform="translate(-1546.956 -390.22)" fill="#c356ff"/>
              <path id="Path_3592" data-name="Path 3592" d="M1547.886,377.609a.958.958,0,0,0-.951.96.952.952,0,0,0,1.9,0v-.013A.947.947,0,0,0,1547.886,377.609Z" transform="translate(-1546.935 -377.609)" fill="#c356ff"/>
              <path id="Path_3593" data-name="Path 3593" d="M1548.211,572.335a.956.956,0,1,0,.95.961v-.013A.947.947,0,0,0,1548.211,572.335Z" transform="translate(-1547.164 -516.322)" fill="#c356ff"/>
              <path id="Path_3594" data-name="Path 3594" d="M1548.173,554.611a.952.952,0,0,0-.946.958v.013a.952.952,0,0,0,1.9-.012v-.013A.952.952,0,0,0,1548.173,554.611Z" transform="translate(-1547.143 -503.696)" fill="#c356ff"/>
              <path id="Path_3595" data-name="Path 3595" d="M1548.236,590.037a.956.956,0,1,0,.953.958v-.013A.947.947,0,0,0,1548.236,590.037Z" transform="translate(-1547.184 -528.932)" fill="#c356ff"/>
              <path id="Path_3596" data-name="Path 3596" d="M1548.149,536.93a.956.956,0,1,0,.954.958v-.013A.948.948,0,0,0,1548.149,536.93Z" transform="translate(-1547.122 -491.101)" fill="#c356ff"/>
              <path id="Path_3597" data-name="Path 3597" d="M1548.061,483.823a.956.956,0,1,0,.954.958v-.013A.947.947,0,0,0,1548.061,483.823Z" transform="translate(-1547.06 -453.271)" fill="#c356ff"/>
              <path id="Path_3598" data-name="Path 3598" d="M1548.09,501.526a.958.958,0,0,0-.951.96.952.952,0,1,0,1.9,0v-.013A.947.947,0,0,0,1548.09,501.526Z" transform="translate(-1547.08 -465.881)" fill="#c356ff"/>
              <path id="Path_3599" data-name="Path 3599" d="M1548.118,519.206a.952.952,0,0,0-.95.954v.013a.952.952,0,1,0,1.9,0v-.013A.952.952,0,0,0,1548.118,519.206Z" transform="translate(-1547.101 -478.476)" fill="#c356ff"/>
            </g>
          </g>
        </g>
      </g>
    </g>
    <g id="Group_5188" data-name="Group 5188" transform="translate(1484.936 489.017)">
      <path id="Path_3600" data-name="Path 3600" d="M2208.2,764.912a.7.7,0,0,0-.7.7v78.528a.7.7,0,0,0,1.4,0V765.61A.7.7,0,0,0,2208.2,764.912Z" transform="translate(-2207.503 -764.912)" fill="#c356ff"/>
    </g>
    <path id="Path_3601" data-name="Path 3601" d="M2205.787,1037.3a3.8,3.8,0,0,0-3.448.161,1.057,1.057,0,0,0,.106,2,3.8,3.8,0,0,0,3.448-.162A1.056,1.056,0,0,0,2205.787,1037.3Z" transform="translate(-718.417 -469.693)" fill="#c356ff"/>
    <g id="Group_5189" data-name="Group 5189" transform="translate(1406.854 437.555)">
      <path id="Path_3602" data-name="Path 3602" d="M1984.951,612.631,1937.087,586.1a.7.7,0,0,0-.95.272.489.489,0,0,0,.45.772l47.865,26.535c-.07.237.046.265.161.265a.7.7,0,0,0,.339-1.309Z" transform="translate(-1936.055 -586.009)" fill="#c356ff"/>
    </g>
    <g id="Group_5190" data-name="Group 5190" transform="translate(1510.617 438.656)">
      <path id="Path_3603" data-name="Path 3603" d="M2341.487,589.941l-44.373,27.465a.7.7,0,1,0,.735,1.188l44.373-27.465a.7.7,0,0,0-.735-1.188Z" transform="translate(-2296.783 -589.836)" fill="#c356ff"/>
    </g>
    <g id="Group_5199" data-name="Group 5199" transform="translate(1447.111 437.961)">
      <g id="Group_5198" data-name="Group 5198" transform="translate(0 0)">
        <g id="Group_5197" data-name="Group 5197" style="isolation: isolate">
          <g id="Group_5192" data-name="Group 5192" transform="translate(0.128)">
            <g id="Group_5191" data-name="Group 5191">
              <path id="Path_3604" data-name="Path 3604" d="M2078.883,611.765l37.461,21.628,37.218-21.628L2116.1,590.136Z" transform="translate(-2078.185 -589.355)" fill="#935dff"/>
              <path id="Path_3605" data-name="Path 3605" d="M2152.181,609.225,2114.72,587.6c-.217-.125-.484-.125-.523-.176l-37.218,21.628c-.393.3-.525.533-.525.782a.7.7,0,0,0,.349.6l37.461,21.628a.7.7,0,0,0,.7,0l37.218-21.628a.7.7,0,0,0,0-1.209Zm-37.568,21.426-36.066-20.823,35.825-20.82,36.066,20.823Z" transform="translate(-2076.455 -587.421)" fill="#c356ff"/>
            </g>
          </g>
          <g id="Group_5194" data-name="Group 5194" transform="translate(37.461 21.711)">
            <g id="Group_5193" data-name="Group 5193">
              <path id="Path_3606" data-name="Path 3606" d="M2208.668,732.18l37.218-21.628.128-45.226L2208.8,686.954Z" transform="translate(-2207.97 -664.627)" fill="#67119e"/>
              <path id="Path_3607" data-name="Path 3607" d="M2244.634,662.991a.7.7,0,0,0-.7,0l-37.218,21.628a.7.7,0,0,0-.347.6l-.128,45.226a.7.7,0,0,0,1.05.606l37.217-21.628a.7.7,0,0,0,.348-.6l.128-45.226A.7.7,0,0,0,2244.634,662.991Zm-1.175,45.428-35.818,20.815.124-43.608,35.818-20.815Z" transform="translate(-2206.24 -662.898)" fill="#c356ff"/>
            </g>
          </g>
          <g id="Group_5196" data-name="Group 5196" transform="translate(0 21.711)">
            <g id="Group_5195" data-name="Group 5195">
              <path id="Path_3608" data-name="Path 3608" d="M2078.437,710.552l37.461,21.628.128-45.226-37.461-21.628Z" transform="translate(-2077.739 -664.628)" fill="#9d3eec"/>
              <path id="Path_3609" data-name="Path 3609" d="M2114.646,684.62l-37.461-21.628a.7.7,0,0,0-1.048.6l-.128,45.226a.7.7,0,0,0,.349.607l37.461,21.628a.7.7,0,0,0,1.048-.6l.128-45.226A.7.7,0,0,0,2114.646,684.62Zm-1.172,44.623-36.066-20.823.124-43.616,36.066,20.823Z" transform="translate(-2076.009 -662.899)" fill="#c356ff"/>
            </g>
          </g>
        </g>
      </g>
    </g>
  </g>
</svg>
